name D:\school\WTK\thesis\model\3dpredictsim\Results\debug_batch\Pog_s1_tmt_aCst_d05_k2000_ig24_pas.mot
datacolumns 128
datarows 4
range 0.00000000 0.03308132
endheader
time	pelvis_tilt	pelvis_list	pelvis_rotation	pelvis_tx	pelvis_ty	pelvis_tz	hip_flexion_l	hip_adduction_l	hip_rotation_l	hip_flexion_r	hip_adduction_r	hip_rotation_r	knee_angle_l	knee_angle_r	ankle_angle_l	ankle_angle_r	subtalar_angle_l	subtalar_angle_r	tmt_angle_l	tmt_angle_r	mtp_angle_l	mtp_angle_r	lumbar_extension	lumbar_bending	lumbar_rotation	arm_flex_l	arm_add_l	arm_rot_l	arm_flex_r	arm_add_r	arm_rot_r	elbow_flex_l	elbow_flex_r	pro_sup_l	pro_sup_r	glut_med1_l/activation	glut_med2_l/activation	glut_med3_l/activation	glut_min1_l/activation	glut_min2_l/activation	glut_min3_l/activation	semimem_l/activation	semiten_l/activation	bifemlh_l/activation	bifemsh_l/activation	sar_l/activation	add_long_l/activation	add_brev_l/activation	add_mag1_l/activation	add_mag2_l/activation	add_mag3_l/activation	tfl_l/activation	pect_l/activation	grac_l/activation	glut_max1_l/activation	glut_max2_l/activation	glut_max3_l/activation	iliacus_l/activation	psoas_l/activation	quad_fem_l/activation	gem_l/activation	peri_l/activation	rect_fem_l/activation	vas_med_l/activation	vas_int_l/activation	vas_lat_l/activation	med_gas_l/activation	lat_gas_l/activation	soleus_l/activation	tib_post_l/activation	flex_dig_l/activation	flex_hal_l/activation	tib_ant_l/activation	per_brev_l/activation	per_long_l/activation	per_tert_l/activation	ext_dig_l/activation	ext_hal_l/activation	ercspn_l/activation	intobl_l/activation	extobl_l/activation	glut_med1_r/activation	glut_med2_r/activation	glut_med3_r/activation	glut_min1_r/activation	glut_min2_r/activation	glut_min3_r/activation	semimem_r/activation	semiten_r/activation	bifemlh_r/activation	bifemsh_r/activation	sar_r/activation	add_long_r/activation	add_brev_r/activation	add_mag1_r/activation	add_mag2_r/activation	add_mag3_r/activation	tfl_r/activation	pect_r/activation	grac_r/activation	glut_max1_r/activation	glut_max2_r/activation	glut_max3_r/activation	iliacus_r/activation	psoas_r/activation	quad_fem_r/activation	gem_r/activation	peri_r/activation	rect_fem_r/activation	vas_med_r/activation	vas_int_r/activation	vas_lat_r/activation	med_gas_r/activation	lat_gas_r/activation	soleus_r/activation	tib_post_r/activation	flex_dig_r/activation	flex_hal_r/activation	tib_ant_r/activation	per_brev_r/activation	per_long_r/activation	per_tert_r/activation	ext_dig_r/activation	ext_hal_r/activation	ercspn_r/activation	intobl_r/activation	extobl_r/activation	
          0.00000000	         -2.92689604	         -2.45309513	          6.00516669	          0.00000000	          0.85553911	         -0.00323231	        -18.61924658	         -2.11110792	          7.16311327	         31.97439624	          3.14511960	         -3.26347797	         -7.13056535	        -15.04225195	          0.53309416	          6.06023922	         10.99338025	         -2.90214185	          0.87340509	          0.01584389	         22.66509664	         -0.12002606	         -2.22306668	          0.88844261	         -2.02050640	          7.92052833	        -13.45892785	         17.42332312	         -9.17100800	        -13.56839825	          6.64439197	         38.79308566	         13.93664835	         86.51662706	         86.51662706	          0.25037490	          0.09818653	          0.06821802	          0.30953710	          0.20096764	          0.09869634	          0.05000625	          0.05000056	          0.05000042	          0.08180172	          0.11562430	          0.08958363	          0.05000094	          0.05000103	          0.05000240	          0.05000264	          0.33011968	          0.05001204	          0.05000116	          0.05001737	          0.05000771	          0.05000417	          0.42238154	          0.65909326	          0.05000041	          0.05000148	          0.05000044	          0.24693510	          0.10279054	          0.05549467	          0.05071597	          0.32196576	          0.43711795	          0.30006691	          0.28211319	          0.28842818	          0.38425103	          0.05000005	          0.06950015	          0.18260869	          0.05000040	          0.05000010	          0.05000030	          0.05000003	          0.05000006	          0.05000008	          0.05000070	          0.05000058	          0.05000473	          0.05000063	          0.05000069	          0.05000178	          0.05918888	          0.05918814	          0.30817487	          0.05000073	          0.05000110	          0.10660901	          0.17377535	          0.21368404	          0.17527377	          0.12818285	          0.05003123	          0.05695900	          0.05919051	          0.05000602	          0.08443017	          0.12151509	          0.05401040	          0.05913140	          0.19519481	          0.05001467	          0.05000271	          0.05587970	          0.13529690	          0.13710414	          0.11708796	          0.05277479	          0.05000228	          0.05918920	          0.05000015	          0.05000390	          0.05063123	          0.53482410	          0.37389869	          0.21891065	          0.32592282	          0.57117794	          0.29207992	          0.06943937	          0.09939355	          0.09818871	
          0.01102711	         -2.91828010	         -2.54728955	          6.27948818	          0.01681614	          0.85443791	         -0.00302136	        -18.41092224	         -2.42876249	          6.97974628	         31.36615828	          3.54037277	         -3.08244443	         -9.23688675	        -14.95838057	         -0.36050616	          5.52012137	         12.01601985	         -3.40669266	          0.74319995	          0.02155871	         23.71870454	         -0.10744033	         -2.00545541	          1.11934795	         -2.10837937	          7.70747800	        -13.47458574	         17.63656528	        -10.30933555	        -13.56070148	          6.48927600	         40.01451924	         13.83122984	         86.51662706	         86.51662706	          0.21150388	          0.08294294	          0.05919080	          0.26148113	          0.16976714	          0.08337364	          0.05000883	          0.05000070	          0.05000087	          0.06910188	          0.09767407	          0.16739545	          0.10478352	          0.06571259	          0.05002672	          0.05000250	          0.27886864	          0.10471833	          0.05218567	          0.05000444	          0.05000263	          0.05000260	          0.35680608	          0.60033711	          0.05007631	          0.06006154	          0.05918980	          0.20859803	          0.12200291	          0.16288228	          0.16288176	          0.27197992	          0.36925452	          0.25348092	          0.23831522	          0.24365016	          0.32459599	          0.05000006	          0.05871024	          0.16323307	          0.05000022	          0.05000007	          0.05000029	          0.05487091	          0.07006725	          0.05000014	          0.05007480	          0.05000305	          0.05000114	          0.05000258	          0.05000262	          0.05000130	          0.05000018	          0.05000037	          0.27109574	          0.05000038	          0.05000387	          0.09005831	          0.14679671	          0.26924005	          0.20465965	          0.12531886	          0.05000046	          0.05000473	          0.05000196	          0.05918908	          0.08497721	          0.13882489	          0.05000032	          0.05000113	          0.50939633	          0.11632605	          0.09370340	          0.07006721	          0.21298395	          0.21698671	          0.18653031	          0.05000001	          0.05000004	          0.05000000	          0.05000032	          0.05919569	          0.05000125	          0.61163211	          0.31585071	          0.21442678	          0.51655820	          0.60699653	          0.26886035	          0.05865880	          0.08396251	          0.08294472	
          0.02205421	         -2.90540133	         -2.64073275	          6.52604509	          0.03392060	          0.85333985	         -0.00281947	        -18.11446314	         -2.73470363	          6.78701446	         30.62317409	          3.87237323	         -2.82530993	        -11.48840130	        -15.40610839	         -1.43970548	          4.93447646	         12.98088807	         -3.94163658	          0.61141727	         -0.01544216	         24.59026414	         -0.15518337	         -1.76625499	          1.35381987	         -2.18472287	          7.40475008	        -13.49080731	         17.77781804	        -11.45890204	        -13.55557020	          6.37990527	         41.20491615	         13.76925971	         86.51662706	         86.51662706	          0.29077881	          0.07006593	          0.05000190	          0.22088615	          0.14341058	          0.07042979	          0.05008195	          0.05000089	          0.05000092	          0.05837376	          0.08251051	          0.16986477	          0.18587373	          0.05919012	          0.05918793	          0.05914722	          0.23557607	          0.08850990	          0.05292266	          0.05019174	          0.05030996	          0.05917249	          0.30141134	          0.55457287	          0.05918901	          0.05073829	          0.05000059	          0.17621279	          0.13626111	          0.13759513	          0.13759469	          0.22975448	          0.31192702	          0.21412749	          0.20131638	          0.20582326	          0.27420202	          0.05000004	          0.05000266	          0.20555528	          0.05000017	          0.05000011	          0.05000025	          0.06543742	          0.05918920	          0.05000027	          0.29665962	          0.05000029	          0.35964195	          0.05000084	          0.05000067	          0.29442846	          0.08198555	          0.05000163	          0.22900882	          0.05000052	          0.05000152	          0.08294217	          0.20194226	          0.22744093	          0.19368526	          0.16093525	          0.05000115	          0.05992355	          0.14163081	          0.05000041	          0.07178462	          0.12921307	          0.05198480	          0.05000094	          0.43031159	          0.09826646	          0.19969135	          0.05918918	          0.17991804	          0.18329966	          0.15757140	          0.05918968	          0.05918973	          0.05918938	          0.05918909	          0.05000602	          0.05918869	          0.51667502	          0.40675913	          0.20863087	          0.43636221	          0.60110658	          0.22711935	          0.05455525	          0.09724114	          0.07006740	
          0.03308132	         -2.89038540	         -2.73149855	          6.73742009	          0.05111696	          0.85225849	         -0.00260070	        -17.70945067	         -3.02341848	          6.58942346	         29.76372805	          4.16653267	         -2.55009363	        -13.89552489	        -15.91001198	         -2.67828425	          4.59848032	         13.87069884	         -4.48730303	          0.47423179	         -0.00939362	         25.18565981	         -0.17342338	         -1.52507004	          1.58876314	         -2.25170679	          7.04210451	        -13.51249404	         17.86219313	        -12.56772574	        -13.55256110	          6.33491299	         42.34788376	         13.71522649	         86.51662706	         86.51662706	          0.24563536	          0.05918811	          0.05000007	          0.29293985	          0.12114594	          0.05949551	          0.06863101	          0.05000030	          0.05000025	          0.05000039	          0.06970192	          0.16330688	          0.15701691	          0.05000120	          0.05000126	          0.05000077	          0.25844054	          0.07477062	          0.05000071	          0.05000152	          0.05000093	          0.05000060	          0.25461671	          0.50188825	          0.05000012	          0.05000051	          0.05000027	          0.14885543	          0.11510735	          0.11623365	          0.11623346	          0.19408463	          0.26349972	          0.18088375	          0.17006167	          0.17386901	          0.23163178	          0.07737425	          0.13864145	          0.17364310	          0.05000289	          0.15786343	          0.05000237	          0.09372929	          0.05000002	          0.05000008	          0.34878887	          0.32629611	          0.43270441	          0.21737485	          0.19788673	          0.24871885	          0.07060827	          0.11067150	          0.19345478	          0.07006877	          0.05000276	          0.07006534	          0.17059039	          0.19213091	          0.18089436	          0.18139293	          0.05000053	          0.05062126	          0.11965665	          0.24726556	          0.19204148	          0.16951791	          0.05000022	          0.05000026	          0.36350501	          0.08301110	          0.16868987	          0.05000012	          0.15198626	          0.22215545	          0.14149212	          0.05000039	          0.05000046	          0.05000012	          0.05000001	          0.05000079	          0.05000045	          0.64471398	          0.36819255	          0.18943556	          0.67516237	          0.66851792	          0.36202465	          0.08101829	          0.08214442	          0.05918931	
